<?xml version="1.0" encoding="UTF-8"?>
<svg version="1.1" xmlns="http://www.w3.org/2000/svg" width="268" height="188">
<path d="M0 0 C88.44 0 176.88 0 268 0 C268 62.04 268 124.08 268 188 C179.56 188 91.12 188 0 188 C0 125.96 0 63.92 0 0 Z " fill="#00943F" transform="translate(0,0)"/>
<path d="M0 0 C3.15748654 1.64250512 6.16972653 3.4705204 9.16796875 5.3828125 C9.85060791 5.81384277 10.53324707 6.24487305 11.23657227 6.68896484 C13.63406429 8.20617898 16.02646146 9.73118282 18.41796875 11.2578125 C19.79734619 12.13759766 19.79734619 12.13759766 21.20458984 13.03515625 C27.52441755 17.06877659 33.83712004 21.11345242 40.14794922 25.16113281 C45.40238648 28.53018666 50.66025799 31.89387042 55.91796875 35.2578125 C62.27526484 39.32528156 68.63162551 43.39418248 74.984375 47.46875 C76.06404541 48.16081543 77.14371582 48.85288086 78.25610352 49.56591797 C80.37814829 50.92619896 82.49974274 52.28718276 84.62084961 53.64892578 C89.23916545 56.6084074 93.86556565 59.54869273 98.54296875 62.4140625 C99.302146 62.88021973 100.06132324 63.34637695 100.84350586 63.82666016 C102.22571425 64.6714922 103.61172479 65.51014826 105.00219727 66.34130859 C106.50758772 67.26080297 107.96910621 68.25159798 109.41796875 69.2578125 C109.41796875 69.9178125 109.41796875 70.5778125 109.41796875 71.2578125 C106.86501499 72.95053184 104.30812617 74.52344092 101.66796875 76.0703125 C94.97806369 80.07204259 88.37580618 84.17270794 81.85546875 88.4453125 C74.33950314 93.3611563 66.79775822 98.23379687 59.23046875 103.0703125 C58.18262207 103.74006104 57.13477539 104.40980957 56.05517578 105.09985352 C53.9157951 106.46696119 51.7763088 107.8339036 49.63671875 109.20068359 C45.38069871 111.92074009 41.12730822 114.64488719 36.87475586 117.37036133 C34.79387806 118.70219421 32.71137963 120.03149868 30.62719727 121.3581543 C25.42730246 124.67047534 20.25852551 128.01911493 15.1328125 131.4453125 C14.12887451 132.10772949 13.12493652 132.77014648 12.09057617 133.45263672 C10.18632506 134.71026008 8.29136411 135.98210089 6.4074707 137.27001953 C5.56015381 137.82544434 4.71283691 138.38086914 3.83984375 138.953125 C3.1034668 139.44828613 2.36708984 139.94344727 1.60839844 140.45361328 C-0.58203125 141.2578125 -0.58203125 141.2578125 -3.1640625 140.515625 C-6.32154904 138.87311988 -9.33378903 137.0451046 -12.33203125 135.1328125 C-13.01467041 134.70178223 -13.69730957 134.27075195 -14.40063477 133.82666016 C-16.79812679 132.30944602 -19.19052396 130.78444218 -21.58203125 129.2578125 C-22.96140869 128.37802734 -22.96140869 128.37802734 -24.36865234 127.48046875 C-30.68848005 123.44684841 -37.00118254 119.40217258 -43.31201172 115.35449219 C-48.56644898 111.98543834 -53.82432049 108.62175458 -59.08203125 105.2578125 C-65.43932734 101.19034344 -71.79568801 97.12144252 -78.1484375 93.046875 C-79.22810791 92.35480957 -80.30777832 91.66274414 -81.42016602 90.94970703 C-83.54221079 89.58942604 -85.66380524 88.22844224 -87.78491211 86.86669922 C-92.40322795 83.9072176 -97.02962815 80.96693227 -101.70703125 78.1015625 C-102.4662085 77.63540527 -103.22538574 77.16924805 -104.00756836 76.68896484 C-105.38977675 75.8441328 -106.77578729 75.00547674 -108.16625977 74.17431641 C-109.67165022 73.25482203 -111.13316871 72.26402702 -112.58203125 71.2578125 C-112.58203125 70.5978125 -112.58203125 69.9378125 -112.58203125 69.2578125 C-110.02907749 67.56509316 -107.47218867 65.99218408 -104.83203125 64.4453125 C-98.14212619 60.44358241 -91.53986868 56.34291706 -85.01953125 52.0703125 C-77.50356564 47.1544687 -69.96182072 42.28182813 -62.39453125 37.4453125 C-61.34668457 36.77556396 -60.29883789 36.10581543 -59.21923828 35.41577148 C-57.0798576 34.04866381 -54.9403713 32.6817214 -52.80078125 31.31494141 C-48.54476121 28.59488491 -44.29137072 25.87073781 -40.03881836 23.14526367 C-37.95794056 21.81343079 -35.87544213 20.48412632 -33.79125977 19.1574707 C-28.59136496 15.84514966 -23.42258801 12.49651007 -18.296875 9.0703125 C-17.29293701 8.40789551 -16.28899902 7.74547852 -15.25463867 7.06298828 C-13.35038756 5.80536492 -11.45542661 4.53352411 -9.5715332 3.24560547 C-8.72421631 2.69018066 -7.87689941 2.13475586 -7.00390625 1.5625 C-5.89934082 0.8197583 -5.89934082 0.8197583 -4.77246094 0.06201172 C-2.58203125 -0.7421875 -2.58203125 -0.7421875 0 0 Z " fill="#FDCA01" transform="translate(135.58203125,23.7421875)"/>
<path d="M0 0 C2.3359375 2.24609375 2.3359375 2.24609375 3.2890625 4.73046875 C3.43353588 12.48387347 -3.04085746 19.6055997 -8.0859375 24.91796875 C-18.66802286 34.4739125 -31.17044647 37.96065292 -45.21484375 37.58984375 C-58.18244311 36.29748957 -69.65638367 29.58496079 -77.9453125 19.6484375 C-86.28136739 7.99690623 -88.28816971 -3.71149402 -87.6640625 -17.75390625 C-87.15625 -20.1484375 -87.15625 -20.1484375 -86.6640625 -21.75390625 C-55.17205582 -27.51955789 -25.47863788 -18.37212835 0 0 Z " fill="#342A83" transform="translate(174.6640625,103.75390625)"/>
<path d="M0 0 C10.4118337 7.51775493 17.46850057 18.37318769 20 31 C20.28874103 35.69085835 20.24983703 40.30861569 20 45 C16.74216832 43.53763166 13.90199559 41.60202755 10.97314453 39.57250977 C4.33677654 34.97894914 -2.09089176 31.30845652 -9.5859375 28.25390625 C-12 27 -12 27 -13 24 C-13.66 24.66 -14.32 25.32 -15 26 C-16.155 25.566875 -17.31 25.13375 -18.5 24.6875 C-35.55583537 19.20246872 -52.30201385 19.6629778 -70 20 C-63.84662429 6.95388171 -54.72543282 -1.30593828 -41.125 -6.4375 C-27.19760446 -10.61211985 -12.19218699 -7.68027569 0 0 Z " fill="#302680" transform="translate(161,55)"/>
<path d="M0 0 C1.7310498 0.0002417 1.7310498 0.0002417 3.49707031 0.00048828 C14.71868714 0.14810024 25.65790562 1.64741269 36.203125 5.6328125 C37.08484375 5.87773438 37.9665625 6.12265625 38.875 6.375 C39.865 5.715 40.855 5.055 41.875 4.375 C42.05289063 4.95894531 42.23078125 5.54289062 42.4140625 6.14453125 C44.57558333 9.44460717 47.761968 10.50167304 51.25 12.0625 C59.10878758 15.76122358 66.6757239 20.1757239 72.875 26.375 C73.0625 29.3125 73.0625 29.3125 72.875 32.375 C71.885 33.365 71.885 33.365 70.875 34.375 C70.31554687 33.8903125 69.75609375 33.405625 69.1796875 32.90625 C43.02834087 11.04338787 14.6753061 7.5566448 -18.125 8.375 C-17.9375 5.5 -17.9375 5.5 -17.125 2.375 C-12.01755214 -0.74253311 -5.79029824 -0.00747671 0 0 Z " fill="#C9E0D4" transform="translate(107.125,73.625)"/>
<path d="M0 0 C1.16257324 0.00128906 2.32514648 0.00257812 3.52294922 0.00390625 C11.88723253 0.09734888 19.52592234 0.85769082 27.5625 3.3125 C26.9025 3.6425 26.2425 3.9725 25.5625 4.3125 C24.90694881 6.83983235 24.90694881 6.83983235 24.5625 9.3125 C23.54591309 9.2053064 23.54591309 9.2053064 22.50878906 9.09594727 C13.76377354 8.26180508 5.08439725 8.1959532 -3.6875 8.25 C-5.12630051 8.25503077 -6.56510274 8.25959086 -8.00390625 8.26367188 C-11.48180751 8.27453936 -14.95964217 8.29171472 -18.4375 8.3125 C-18.25 5.4375 -18.25 5.4375 -17.4375 2.3125 C-12.26535724 -0.86538442 -5.8652598 -0.02648346 0 0 Z " fill="#B1D2C0" transform="translate(107.4375,73.6875)"/>
<path d="M0 0 C4.11983144 1.43592665 7.25817998 3.46250969 10.75 6.0625 C11.71421875 6.77535156 12.6784375 7.48820312 13.671875 8.22265625 C16 10 16 10 17 11 C17.1875 13.9375 17.1875 13.9375 17 17 C16.34 17.66 15.68 18.32 15 19 C14.3709375 18.48050781 13.741875 17.96101563 13.09375 17.42578125 C7.91319371 13.2048762 2.7488231 9.40670998 -3 6 C-2 3 -2 3 0 1 C0 0.67 0 0.34 0 0 Z " fill="#C1DDCE" transform="translate(163,89)"/>
<path d="M0 0 C5.78898419 -0.20674944 10.42932723 0.40837921 16 2 C15.01 2.495 15.01 2.495 14 3 C13.34444881 5.52733235 13.34444881 5.52733235 13 8 C6.63440427 7.50873071 0.30735307 7.00344253 -6 6 C-5.38125 5.7525 -4.7625 5.505 -4.125 5.25 C-1.64931313 3.79371361 -1.04874998 2.62187494 0 0 Z " fill="#F5F7F7" transform="translate(119,75)"/>
<path d="M0 0 C2.86731522 1.80487253 5.55755166 3.64287737 8 6 C8.625 9.25 8.625 9.25 8 12 C7.34 12.66 6.68 13.32 6 14 C3.74754119 11.31158141 2.11786042 9.35358125 1 6 C-1.01508358 5.26676204 -1.01508358 5.26676204 -3 5 C-1.125 1.125 -1.125 1.125 0 0 Z " fill="#9FCFB2" transform="translate(172,94)"/>
<path d="M0 0 C0.83595703 0.00902344 1.67191406 0.01804687 2.53320312 0.02734375 C4.58475969 0.05079011 6.63616777 0.08665734 8.6875 0.125 C7.3675 0.455 6.0475 0.785 4.6875 1.125 C4.6875 2.775 4.6875 4.425 4.6875 6.125 C3.6975 5.795 2.7075 5.465 1.6875 5.125 C2.0175 3.805 2.3475 2.485 2.6875 1.125 C1.3675 1.125 0.0475 1.125 -1.3125 1.125 C-1.3125 2.775 -1.3125 4.425 -1.3125 6.125 C-1.56 5.485625 -1.8075 4.84625 -2.0625 4.1875 C-3.12812433 1.93758459 -3.12812433 1.93758459 -5.4375 1.375 C-6.365625 1.25125 -6.365625 1.25125 -7.3125 1.125 C-7.6425 2.445 -7.9725 3.765 -8.3125 5.125 C-8.6425 4.465 -8.9725 3.805 -9.3125 3.125 C-10.3025 2.795 -11.2925 2.465 -12.3125 2.125 C-12.3125 3.445 -12.3125 4.765 -12.3125 6.125 C-11.3225 6.455 -10.3325 6.785 -9.3125 7.125 C-10.3125 8.125 -10.3125 8.125 -12.875 8.1875 C-13.679375 8.166875 -14.48375 8.14625 -15.3125 8.125 C-15.125 5.25 -15.125 5.25 -14.3125 2.125 C-9.85536252 -0.56343213 -5.02575434 -0.10313308 0 0 Z " fill="#F4F4F2" transform="translate(104.3125,73.875)"/>
<path d="M0 0 C3.0625 1.25 3.0625 1.25 6 3 C6.33 3.99 6.66 4.98 7 6 C6.01 7.485 6.01 7.485 5 9 C2.03 8.505 2.03 8.505 -1 8 C-1.33 5.69 -1.66 3.38 -2 1 C-1.34 0.67 -0.68 0.34 0 0 Z " fill="#A4CEB4" transform="translate(157,85)"/>
<path d="M0 0 C1.65 0 3.3 0 5 0 C5 1.98 5 3.96 5 6 C1.37 6 -2.26 6 -6 6 C-4.68 5.34 -3.36 4.68 -2 4 C-0.73195434 1.9664052 -0.73195434 1.9664052 0 0 Z " fill="#FCFCFD" transform="translate(119,75)"/>
<path d="M0 0 C1.65 0.33 3.3 0.66 5 1 C2.77267549 4.34098676 1.75137087 4.90203779 -2 6 C-2.99 5.67 -3.98 5.34 -5 5 C-5 3.68 -5 2.36 -5 1 C-3.68 1.33 -2.36 1.66 -1 2 C-0.67 1.34 -0.34 0.68 0 0 Z " fill="#8CC7A0" transform="translate(97,75)"/>
<path d="M0 0 C1.32 0.66 2.64 1.32 4 2 C3.34 3.65 2.68 5.3 2 7 C3.32 7 4.64 7 6 7 C6.33 8.65 6.66 10.3 7 12 C4.04590299 10.62845496 1.55991624 9.01136276 -1 7 C-0.67 4.69 -0.34 2.38 0 0 Z " fill="#F3F4F6" transform="translate(168,92)"/>
<path d="M0 0 C0.66 0.33 1.32 0.66 2 1 C1.34 3.31 0.68 5.62 0 8 C-0.66 8 -1.32 8 -2 8 C-2.33 8.66 -2.66 9.32 -3 10 C-3.33 8.35 -3.66 6.7 -4 5 C-3.01 4.67 -2.02 4.34 -1 4 C-0.26676204 1.98491642 -0.26676204 1.98491642 0 0 Z " fill="#90BCAB" transform="translate(148,78)"/>
<path d="M0 0 C1.32 0.33 2.64 0.66 4 1 C3.01 1.495 3.01 1.495 2 2 C2.66 2.33 3.32 2.66 4 3 C4 3.66 4 4.32 4 5 C4.66 5.33 5.32 5.66 6 6 C2.7 5.67 -0.6 5.34 -4 5 C-2.68 4.67 -1.36 4.34 0 4 C0 2.68 0 1.36 0 0 Z " fill="#9BC1B0" transform="translate(124,77)"/>
<path d="M0 0 C0.66 0.33 1.32 0.66 2 1 C2.125 3.875 2.125 3.875 2 7 C1.34 7.66 0.68 8.32 0 9 C-0.99 7.68 -1.98 6.36 -3 5 C-2.34 4.67 -1.68 4.34 -1 4 C-0.34786708 1.97536745 -0.34786708 1.97536745 0 0 Z " fill="#FAF9F6" transform="translate(178,99)"/>
<path d="M0 0 C1.65 0.33 3.3 0.66 5 1 C4.01 1.66 3.02 2.32 2 3 C2 4.32 2 5.64 2 7 C0.68 6.67 -0.64 6.34 -2 6 C-2 5.34 -2 4.68 -2 4 C-1.34 4 -0.68 4 0 4 C0 2.68 0 1.36 0 0 Z " fill="#F2F3F6" transform="translate(148,82)"/>
<path d="M0 0 C0.66 0.33 1.32 0.66 2 1 C1.67 2.32 1.34 3.64 1 5 C0.34 5 -0.32 5 -1 5 C-1.33 5.66 -1.66 6.32 -2 7 C-2.66 6.67 -3.32 6.34 -4 6 C-2.25 1.125 -2.25 1.125 0 0 Z " fill="#86BA9D" transform="translate(135,77)"/>
<path d="M0 0 C1.32 0.33 2.64 0.66 4 1 C4 2.32 4 3.64 4 5 C2.68 5 1.36 5 0 5 C0 3.35 0 1.7 0 0 Z " fill="#74BD8E" transform="translate(109,75)"/>
</svg>
